<?xml version="1.0" encoding="UTF-8"?>
<svg width="160px" height="160px" viewBox="0 0 160 160" version="1.1" xmlns="http://www.w3.org/2000/svg" xmlns:xlink="http://www.w3.org/1999/xlink">
    <!-- Generator: Sketch 53.2 (72643) - https://sketchapp.com -->
    <title>icon-file</title>
    <desc>Created with Sketch.</desc>
    <g id="icon-file" stroke="none" stroke-width="1" fill="none" fill-rule="evenodd">
        <rect id="Rectangle" fill="#243647" x="0" y="0" width="160" height="160"></rect>
        <g id="folder" transform="translate(36.000000, 45.000000)" fill-rule="nonzero">
            <path d="M70.7780676,71 L2.86803165,71 C1.30527696,71 0.168866031,69.5172258 0.577002935,68.0086774 L16.00124,25.7526452 C16.2804117,24.7186452 17.2195817,24 18.2922687,24 L86.2023046,24 C87.7650593,24 88.4933333,25.491871 88.4933333,26.9913226 L73.0690963,69.2473548 C72.7899246,70.2813548 71.8507545,71 70.7780676,71 Z" id="Path" fill="#F0F4F6"></path>
            <path d="M77.8620256,10.5464358 L39.4741026,10.5464358 L31.8779487,0 L4.12464103,0 C2.67225641,0 1.49333333,1.16764111 1.49333333,2.60948954 L1.49333333,66.9849337 C1.59816026,66.9879469 1.70298718,66.9939735 1.80477564,67 L17.0198718,25.8478075 C17.2994103,24.8187767 18.2398141,24.106139 19.3139103,24.106139 L80.4933333,24.106139 L80.4933333,13.1559253 C80.4933333,11.7140769 79.3144103,10.5464358 77.8620256,10.5464358 Z" id="Path" fill="#CCCCCC"></path>
        </g>
    </g>
</svg>