<?xml version="1.0" encoding="UTF-8"?>
<svg width="35px" height="29px" viewBox="0 0 35 29" version="1.1" xmlns="http://www.w3.org/2000/svg" xmlns:xlink="http://www.w3.org/1999/xlink">
    <!-- Generator: Sketch 51.3 (57544) - http://www.bohemiancoding.com/sketch -->
    <title>icon-star--yellow</title>
    <desc>Created with Sketch.</desc>
    <defs></defs>
    <g id="icon-star--yellow" stroke="none" stroke-width="1" fill="none" fill-rule="evenodd">
        <path d="M16.0000098,1.12194044 L16.0000038,1.12192842 C15.5908018,0.292721853 14.4087661,0.292721853 13.9999902,1.12194044 L10.6163848,7.97801251 C10.3082481,8.60248104 9.71246291,9.03521155 9.02337646,9.13517413 L1.45683137,10.2347043 C0.541803208,10.3673359 0.176544784,11.4915166 0.838610765,12.1371606 L6.31371253,17.4739611 C6.81210269,17.9600555 7.03969961,18.660697 6.92174128,19.3463293 L5.62948177,26.8821109 C5.47305396,27.7934541 6.42981901,28.4887141 7.24821701,28.0583422 L14.01561,24.5006735 C14.6317762,24.1770224 15.3682238,24.1770224 15.9845431,24.500754 L22.7516567,28.0582758 C23.5702426,28.4883143 24.5269164,27.7932812 24.3705049,26.8820332 L23.0783047,19.3465973 C22.9603004,18.660697 23.1878973,17.9600555 23.6863956,17.4738557 L29.1614254,12.1371253 C29.8234151,11.4919879 29.4581413,10.3677599 28.542991,10.2346785 L20.9767444,9.13519167 C20.2875371,9.03521155 19.6917519,8.60248104 19.3836297,7.97804179 L16.0000098,1.12194044 Z" id="Shape-Copy-3" stroke="#DDDDDD" fill="#FFF600" fill-rule="nonzero"></path>
    </g>
</svg>