<?xml version="1.0" encoding="UTF-8"?>
<svg width="17px" height="17px" viewBox="0 0 17 17" version="1.1" xmlns="http://www.w3.org/2000/svg" xmlns:xlink="http://www.w3.org/1999/xlink">
    <!-- Generator: Sketch 53.2 (72643) - https://sketchapp.com -->
    <title>Path</title>
    <desc>Created with Sketch.</desc>
    <g id="Page-1" stroke="none" stroke-width="1" fill="none" fill-rule="evenodd">
        <g id="Artboard-Copy" transform="translate(-15.000000, -16.000000)" fill="#FFFFFF" fill-rule="nonzero">
            <path d="M25.5204372,24.5000399 L31.5815691,18.438908 C32.1395036,17.8809735 32.1395036,16.9763853 31.5815691,16.4185307 C31.0236346,15.8605962 30.1191263,15.8605962 29.5611918,16.4185307 L23.49998,22.4797424 L17.4387683,16.4184509 C16.8808338,15.8605164 15.9763255,15.8605164 15.418391,16.4184509 C14.8605363,16.9763853 14.8605363,17.8809735 15.418391,18.4388282 L21.4796027,24.4999601 L15.418391,30.5611718 C14.8605363,31.1191063 14.8605363,32.0236945 15.418391,32.5815491 C15.9763255,33.1394836 16.8808338,33.1394836 17.4387683,32.5815491 L23.49998,26.5203374 L29.5611918,32.5815491 C30.1190464,33.1394836 31.0236346,33.1394836 31.5815691,32.5815491 C32.1395036,32.0236147 32.1395036,31.1191063 31.5815691,30.5611718 L25.5204372,24.5000399 Z" id="Path"></path>
        </g>
    </g>
</svg>