<?xml version="1.0" encoding="UTF-8"?>
<svg width="25px" height="28px" viewBox="0 0 25 28" version="1.1" xmlns="http://www.w3.org/2000/svg" xmlns:xlink="http://www.w3.org/1999/xlink">
    <!-- Generator: Sketch 51.3 (57544) - http://www.bohemiancoding.com/sketch -->
    <title>medal</title>
    <desc>Created with Sketch.</desc>
    <defs></defs>
    <g id="design" stroke="none" stroke-width="1" fill="none" fill-rule="evenodd">
        <g id="pc/home/portfolio" transform="translate(-320.000000, -1257.000000)" fill-rule="nonzero">
            <g id="Group-5-Copy-6" transform="translate(240.000000, 1142.000000)">
                <g id="Group-2" transform="translate(80.000000, 115.000000)">
                    <g id="medal">
                        <circle id="Oval" fill="#FFD15C" cx="12.4759615" cy="10.7745726" r="10.7745726"></circle>
                        <g id="Group" transform="translate(0.000000, 17.040598)" fill="#40596B">
                            <path d="M3.74732906,0.0373931624 L0.0400641026,6.46367521 L4.36698718,6.23397436 L6.33279915,10.0961538 L9.76228632,4.15064103 C7.30502137,3.51495726 5.19497863,2.03525641 3.74732906,0.0373931624 Z" id="Shape"></path>
                            <path d="M21.2259615,0.00534188034 C19.7889957,2.00854701 17.678953,3.49358974 15.2270299,4.13995726 L18.6672009,10.0961538 L20.6330128,6.23397436 L24.9599359,6.46367521 L21.2259615,0.00534188034 Z" id="Shape"></path>
                        </g>
                        <circle id="Oval" fill="#F8B64C" cx="12.4759615" cy="10.7745726" r="7.80982906"></circle>
                        <path d="M17.8285256,9.93055556 C18.0689103,9.69551282 17.9353632,9.28418803 17.6041667,9.23611111 L14.5219017,8.78739316 C14.3883547,8.76602564 14.2761752,8.68589744 14.2174145,8.56303419 L12.8392094,5.76923077 C12.6896368,5.46474359 12.2569444,5.46474359 12.1073718,5.76923077 L10.7345085,8.56303419 C10.6757479,8.68055556 10.5582265,8.76602564 10.4300214,8.78739316 L7.34775641,9.23611111 C7.01655983,9.28418803 6.88301282,9.69551282 7.12339744,9.93055556 L9.35096154,12.1047009 C9.44711538,12.2008547 9.48985043,12.3344017 9.46848291,12.4626068 L8.94497863,15.5288462 C8.88621795,15.8600427 9.23878205,16.116453 9.53792735,15.9561966 L12.2943376,14.508547 C12.411859,14.4444444 12.5560897,14.4444444 12.6736111,14.508547 L15.4300214,15.9561966 C15.7291667,16.1111111 16.0763889,15.8600427 16.0229701,15.5288462 L15.4941239,12.4626068 C15.4727564,12.3290598 15.5154915,12.1955128 15.6116453,12.1047009 L17.8285256,9.93055556 Z" id="Shape" fill="#FFFFFF"></path>
                    </g>
                </g>
            </g>
        </g>
    </g>
</svg>