<?xml version="1.0" encoding="UTF-8"?>
<svg width="20px" height="16px" viewBox="0 0 20 16" version="1.1" xmlns="http://www.w3.org/2000/svg" xmlns:xlink="http://www.w3.org/1999/xlink">
    <!-- Generator: Sketch 53.2 (72643) - https://sketchapp.com -->
    <title>Path Copy 5</title>
    <desc>Created with Sketch.</desc>
    <g id="Page-1" stroke="none" stroke-width="1" fill="none" fill-rule="evenodd">
        <g id="Artboard" transform="translate(-14.000000, -16.000000)" fill="#FFFFFF" fill-rule="nonzero">
            <path d="M25.2504558,19.1251913 L22.7503756,19.125077 L15.2500364,19.1251045 C14.5596303,19.1251071 13.999998,18.4255719 14,17.5625706 C14.000002,16.6996928 14.559687,16.0000918 15.2500437,16.0000275 L22.750383,16 L25.2503644,16.0001143 L32.7507036,16.0000868 C33.4411097,16.0000842 34.000742,16.6996194 34.00074,17.5626207 C34.0007874,18.4255603 33.4411024,19.1251613 32.7506963,19.1251638 L25.2504558,19.1251913 Z M25.2504558,32 L22.7503756,31.9998857 L15.2500364,31.9999132 C14.5596303,31.9999158 13.999998,31.3003806 14,30.4373793 C14.000002,29.5745015 14.559687,28.8749005 15.2500437,28.8748362 L22.750383,28.8748087 L25.2503644,28.874923 L32.7507036,28.8748955 C33.4411097,28.8748929 34.000742,29.5744281 34.00074,30.4374294 C34.0007874,31.3003689 33.4411024,31.99997 32.7506963,31.9999725 L25.2504558,32 Z M32.7506963,25.5625681 C24.0003663,25.5626002 24.0003663,25.5624768 15.2500364,25.5625089 C14.5596303,25.5625114 13.999998,24.8629762 14,23.999975 C14.000002,23.1370971 14.559687,22.4374961 15.2500437,22.4374319 L32.7507036,22.4374911 C33.4411097,22.4374886 34.000742,23.1370238 34.00074,24.000025 C34.0007874,24.8629646 33.4411024,25.5625656 32.7506963,25.5625681 Z" id="Path-Copy-5"></path>
        </g>
    </g>
</svg>