<?xml version="1.0" encoding="UTF-8"?>
<svg width="160px" height="160px" viewBox="0 0 160 160" version="1.1" xmlns="http://www.w3.org/2000/svg" xmlns:xlink="http://www.w3.org/1999/xlink">
    <!-- Generator: Sketch 51.3 (57544) - http://www.bohemiancoding.com/sketch -->
    <title>Group 6</title>
    <desc>Created with Sketch.</desc>
    <defs></defs>
    <g id="design" stroke="none" stroke-width="1" fill="none" fill-rule="evenodd">
        <g id="pc/sign-up" transform="translate(-380.000000, -2997.000000)">
            <g id="Group-3" transform="translate(380.000000, 340.000000)">
                <g id="Group-7" transform="translate(0.000000, 2537.000000)">
                    <g id="Group-6" transform="translate(0.000000, 120.000000)">
                        <rect id="Rectangle" stroke="#EEEEEE" fill="#243647" x="0.5" y="0.5" width="159" height="159" rx="2"></rect>
                        <g id="man-user-(1)" transform="translate(34.000000, 20.000000)" fill-rule="nonzero">
                            <path d="M45.9428571,58.6878857 C59.2848,58.6878857 70.1016,45.5502857 70.1016,29.3441143 C70.1016,13.1376 66.5502857,0 45.9428571,0 C25.3354286,0 21.7834286,13.1376 21.7834286,29.3441143 C21.7834286,45.5502857 32.6002286,58.6878857 45.9428571,58.6878857 Z" id="Shape" fill="#F0F4F6"></path>
                            <path d="M0.313834578,103.492457 C0.307834578,102.504343 0.301834578,103.214057 0.313834578,103.492457 Z" id="Shape" fill="#000000"></path>
                            <path d="M91.572,104.264229 C91.591,103.993714 91.5785,102.387429 91.572,104.264229 Z" id="Shape" fill="#000000"></path>
                            <path d="M91.5205714,102.307543 C91.0731429,74.076 87.3860571,66.0315429 59.1713143,60.9394286 C59.1713143,60.9394286 55.1996571,66.0003429 45.9425143,66.0003429 C36.6853714,66.0003429 32.7130286,60.9394286 32.7130286,60.9394286 C4.80617143,65.976 0.894857143,73.9011429 0.380571429,101.3904 C0.3384,103.635086 0.318857143,103.753029 0.311314286,103.492457 C0.313028571,103.980686 0.315085714,104.883771 0.315085714,106.458514 C0.315085714,106.458514 7.03234286,120 45.9425143,120 C84.852,120 91.5699429,106.458514 91.5699429,106.458514 C91.5699429,105.446743 91.5706286,104.7432 91.5716571,104.264571 C91.5641143,104.425714 91.5490286,104.113371 91.5205714,102.307543 Z" id="Shape" fill="#F0F4F6"></path>
                        </g>
                    </g>
                </g>
            </g>
        </g>
    </g>
</svg>