<?xml version="1.0" encoding="UTF-8"?>
<svg width="20px" height="20px" viewBox="0 0 20 20" version="1.1" xmlns="http://www.w3.org/2000/svg" xmlns:xlink="http://www.w3.org/1999/xlink">
    <!-- Generator: Sketch 49.3 (51167) - http://www.bohemiancoding.com/sketch -->
    <title>icon_search</title>
    <desc>Created with Sketch.</desc>
    <defs></defs>
    <g id="design" stroke="none" stroke-width="1" fill="none" fill-rule="evenodd" fill-opacity="0.3">
        <g id="Artboard-Copy" transform="translate(-400.000000, -280.000000)" fill="#243647" fill-rule="nonzero">
            <g id="pc/form" transform="translate(380.000000, 265.000000)">
                <path d="M39.755102,33.5795918 L34.9469388,28.7714286 C36.1387755,27.3183673 36.8571429,25.4571429 36.8571429,23.4285714 C36.8571429,18.7755102 33.0816327,15 28.4285714,15 C23.7714286,15 20,18.7755102 20,23.4285714 C20,28.0816327 23.7714286,31.8571429 28.4285714,31.8571429 C30.4571429,31.8571429 32.3142857,31.1428571 33.7673469,29.9510204 L38.5755102,34.755102 C38.9020408,35.0816327 39.4285714,35.0816327 39.755102,34.755102 C40.0816327,34.4326531 40.0816327,33.9020408 39.755102,33.5795918 Z M28.4285714,30.1795918 C24.7020408,30.1795918 21.6734694,27.1510204 21.6734694,23.4285714 C21.6734694,19.7061224 24.7020408,16.6734694 28.4285714,16.6734694 C32.1510204,16.6734694 35.1836735,19.7061224 35.1836735,23.4285714 C35.1836735,27.1510204 32.1510204,30.1795918 28.4285714,30.1795918 Z" id="icon_search"></path>
            </g>
        </g>
    </g>
</svg>